<?xml version="1.0" standalone="no"?>
<!DOCTYPE svg PUBLIC "-//W3C//DTD SVG 20010904//EN"
 "http://www.w3.org/TR/2001/REC-SVG-20010904/DTD/svg10.dtd">
<svg version="1.0" xmlns="http://www.w3.org/2000/svg"
 width="302.000000pt" height="167.000000pt" viewBox="0 0 302.000000 167.000000"
 preserveAspectRatio="xMidYMid meet">

<g transform="translate(0.000000,167.000000) scale(0.100000,-0.100000)"
fill="#000000" stroke="none">
<path d="M1333 1491 c-73 -31 -135 -60 -140 -64 -20 -21 43 -27 297 -27 261 0
319 6 295 29 -16 15 -283 121 -302 120 -10 0 -77 -26 -150 -58z m254 -17 c49
-20 92 -40 98 -45 5 -5 -75 -9 -200 -9 -114 0 -206 3 -203 6 9 8 191 83 205
84 7 0 52 -16 100 -36z"/>
<path d="M1210 1365 c0 -9 9 -15 23 -15 24 0 47 -37 47 -78 0 -21 1 -22 16 -7
9 8 13 22 10 31 -4 11 -1 14 12 12 9 -2 16 -10 14 -17 -1 -7 2 -18 7 -25 5 -6
10 -55 10 -108 l1 -98 -34 0 c-47 0 -66 -9 -66 -31 0 -18 11 -19 236 -19 l235
0 -3 23 c-2 18 -10 23 -45 25 l-43 3 0 70 c0 63 11 88 23 57 3 -7 6 0 6 16 1
24 -1 27 -14 16 -13 -11 -15 -8 -15 19 0 17 5 31 11 31 6 0 8 9 4 20 -5 15 -2
20 10 20 11 0 16 -6 13 -17 -2 -10 4 -26 14 -35 17 -17 18 -17 18 15 0 59 10
77 41 77 19 0 29 5 29 15 0 13 -38 15 -280 15 -242 0 -280 -2 -280 -15z m87
-37 c-3 -8 -6 -5 -6 6 -1 11 2 17 5 13 3 -3 4 -12 1 -19z m20 0 c-3 -8 -6 -5
-6 6 -1 11 2 17 5 13 3 -3 4 -12 1 -19z m20 0 c-3 -8 -6 -5 -6 6 -1 11 2 17 5
13 3 -3 4 -12 1 -19z m32 5 c1 15 14 17 120 17 l119 0 6 -31 c10 -51 7 -249
-4 -270 -10 -17 -22 -19 -125 -19 l-114 0 -5 33 c-8 50 -12 288 -4 269 6 -16
7 -16 7 1z"/>
<path d="M1287 1223 c-4 -3 -7 -18 -6 -32 1 -26 1 -25 10 3 9 31 7 41 -4 29z"/>
<path d="M1318 1198 c5 -31 5 -31 13 -9 9 23 5 41 -10 41 -4 0 -5 -14 -3 -32z"/>
<path d="M1670 1222 c0 -5 4 -12 9 -17 6 -6 12 -39 14 -75 l3 -65 2 76 c2 60
-1 78 -13 83 -8 3 -15 2 -15 -2z"/>
<path d="M1673 1135 c0 -38 2 -53 4 -32 2 20 2 52 0 70 -2 17 -4 1 -4 -38z"/>
<path d="M1326 1125 c-3 -8 -1 -25 4 -37 8 -20 9 -18 9 15 1 39 -3 47 -13 22z"/>
<path d="M1643 1105 c0 -22 2 -30 4 -17 2 12 2 30 0 40 -3 9 -5 -1 -4 -23z"/>
<path d="M1282 1095 c0 -16 2 -22 5 -12 2 9 2 23 0 30 -3 6 -5 -1 -5 -18z"/>
<path d="M1170 975 c0 -13 42 -15 320 -15 278 0 320 2 320 15 0 13 -42 15
-320 15 -278 0 -320 -2 -320 -15z"/>
<path d="M1140 930 c0 -6 123 -10 350 -10 227 0 350 4 350 10 0 6 -123 10
-350 10 -227 0 -350 -4 -350 -10z"/>
<path d="M365 710 c0 -79 2 -90 18 -90 15 0 17 10 17 80 0 72 2 80 19 80 29 0
47 -28 33 -51 -10 -15 -9 -19 3 -19 19 0 37 34 29 55 -9 23 -37 35 -81 35
l-38 0 0 -90z"/>
<path d="M559 771 c-20 -20 -29 -39 -29 -61 0 -22 9 -41 29 -61 63 -62 161
-21 161 67 0 34 -5 47 -26 63 -41 32 -98 28 -135 -8z m119 -9 c39 -52 13 -115
-51 -120 -27 -2 -39 2 -51 20 -24 33 -20 75 10 104 28 29 68 27 92 -4z"/>
<path d="M780 710 l0 -90 35 0 c50 0 102 24 110 52 25 77 -13 128 -96 128
l-49 0 0 -90z m110 48 c26 -28 26 -58 -1 -92 -14 -17 -30 -26 -50 -26 l-29 0
0 70 0 70 30 0 c17 0 38 -9 50 -22z"/>
<path d="M995 710 l0 -91 49 3 c59 4 76 26 19 24 -36 -1 -38 1 -41 32 -3 29
-1 32 22 32 14 0 26 5 26 10 0 6 -11 10 -25 10 -20 0 -25 5 -25 25 0 21 5 25
30 25 17 0 30 5 30 10 0 6 -19 10 -42 10 l-43 0 0 -90z"/>
<path d="M1155 710 c0 -74 3 -90 15 -90 13 0 15 14 12 80 l-4 80 26 0 c36 0
46 -28 17 -51 l-22 -18 26 -40 c24 -35 52 -57 61 -48 2 2 -10 22 -26 44 -29
40 -30 40 -10 58 11 10 20 23 20 30 0 23 -37 45 -76 45 l-39 0 0 -90z"/>
<path d="M1438 699 c2 -67 -1 -105 -9 -115 -9 -11 -8 -14 4 -14 27 0 37 35 37
134 0 85 -2 96 -17 96 -16 0 -18 -10 -15 -101z"/>
<path d="M1540 727 c6 -95 16 -107 89 -105 l56 1 0 89 c0 77 -2 88 -17 88 -16
0 -17 -7 -12 -58 8 -77 -5 -104 -49 -100 l-32 3 -3 78 c-2 65 -6 77 -20 77
-15 0 -16 -9 -12 -73z"/>
<path d="M1750 710 l0 -90 34 0 c56 0 93 18 110 55 33 69 -10 125 -95 125
l-49 0 0 -90z m110 50 c26 -26 25 -60 -1 -94 -14 -17 -30 -26 -50 -26 l-29 0
0 70 0 70 30 0 c17 0 39 -9 50 -20z"/>
<path d="M1965 710 c0 -73 3 -90 15 -90 12 0 15 17 15 90 0 73 -3 90 -15 90
-12 0 -15 -17 -15 -90z"/>
<path d="M2097 789 c-48 -28 -51 -114 -6 -151 31 -26 95 -24 109 3 10 19 10
20 -9 10 -53 -29 -101 0 -101 61 0 45 28 72 70 66 20 -3 30 0 30 9 0 16 -66
17 -93 2z"/>
<path d="M2263 710 c1 -74 4 -90 16 -90 13 0 16 15 16 90 0 78 -2 90 -17 90
-14 0 -16 -12 -15 -90z"/>
<path d="M2400 783 c0 -10 -14 -49 -30 -88 -35 -81 -34 -75 -16 -75 8 0 17 15
20 35 7 33 9 35 46 35 37 0 39 -2 46 -35 4 -24 12 -35 24 -35 15 0 13 11 -18
90 -27 68 -40 90 -54 90 -10 0 -18 -7 -18 -17z m39 -60 c1 -7 -8 -13 -19 -13
-23 0 -25 12 -8 43 11 21 11 21 19 2 4 -11 8 -26 8 -32z"/>
<path d="M2550 710 l0 -90 49 0 c33 0 51 5 54 14 4 11 -3 13 -35 9 l-40 -6 4
82 c3 72 1 81 -14 81 -16 0 -18 -11 -18 -90z"/>
<path d="M378 543 c7 -3 16 -2 19 1 4 3 -2 6 -13 5 -11 0 -14 -3 -6 -6z"/>
<path d="M518 543 c7 -3 16 -2 19 1 4 3 -2 6 -13 5 -11 0 -14 -3 -6 -6z"/>
<path d="M641 518 c2 -30 2 -31 6 -5 4 27 17 36 26 17 3 -6 4 -5 3 2 -1 7 -10
14 -19 16 -13 3 -17 -4 -16 -30z"/>
<path d="M770 526 c0 -14 4 -27 8 -30 5 -3 6 8 4 25 -5 35 -12 38 -12 5z"/>
<path d="M809 522 c-3 -20 -2 -29 4 -23 5 5 7 19 5 32 -3 20 -5 19 -9 -9z"/>
<path d="M920 520 c0 -23 5 -30 19 -30 15 0 19 7 19 30 -1 22 -6 30 -20 30
-13 0 -18 -7 -18 -30z m30 -10 c0 -5 -4 -10 -10 -10 -5 0 -10 5 -10 10 0 6 5
10 10 10 6 0 10 -4 10 -10z"/>
<path d="M1061 523 c-1 -25 3 -33 17 -33 11 0 13 3 6 8 -7 4 -14 18 -17 32 -4
21 -4 20 -6 -7z"/>
<path d="M1192 520 c0 -19 2 -27 5 -17 2 9 2 25 0 35 -3 9 -5 1 -5 -18z"/>
<path d="M1304 535 c-9 -23 3 -45 23 -44 17 1 17 2 1 6 -10 2 -18 13 -18 23 0
10 8 21 18 23 16 4 16 5 -1 6 -10 0 -20 -6 -23 -14z"/>
<path d="M1700 520 c0 -27 3 -31 23 -28 16 2 22 10 22 28 0 18 -6 26 -22 28
-20 3 -23 -1 -23 -28z m40 0 c0 -11 -7 -20 -15 -20 -8 0 -15 9 -15 20 0 11 7
20 15 20 8 0 15 -9 15 -20z"/>
<path d="M1850 520 c0 -22 5 -30 18 -29 10 0 12 3 5 6 -7 2 -13 13 -13 23 0
10 6 21 13 23 7 3 5 6 -5 6 -13 1 -18 -7 -18 -29z"/>
<path d="M2094 535 c-9 -23 3 -45 23 -44 17 1 17 2 1 6 -10 2 -18 13 -18 23 0
10 8 21 18 23 16 4 16 5 -1 6 -10 0 -20 -6 -23 -14z"/>
<path d="M2232 520 c0 -19 2 -27 5 -17 2 9 2 25 0 35 -3 9 -5 1 -5 -18z"/>
<path d="M2262 535 c-7 -8 -8 -15 -3 -15 5 0 12 -8 14 -17 3 -10 5 -3 6 15 1
36 1 37 -17 17z"/>
<path d="M2382 520 c0 -19 2 -27 5 -17 2 9 2 25 0 35 -3 9 -5 1 -5 -18z"/>
<path d="M2491 523 c-1 -25 3 -33 17 -33 11 0 13 3 6 8 -7 4 -14 18 -17 32 -4
21 -4 20 -6 -7z"/>
<path d="M2620 520 c0 -22 5 -30 18 -29 10 0 12 3 5 6 -7 2 -13 13 -13 23 0
10 6 21 13 23 7 3 5 6 -5 6 -13 1 -18 -7 -18 -29z"/>
<path d="M390 516 c0 -8 4 -17 9 -20 5 -4 7 3 4 14 -6 23 -13 26 -13 6z"/>
<path d="M1470 525 c0 -5 5 -17 10 -25 5 -8 10 -10 10 -5 0 6 -5 17 -10 25 -5
8 -10 11 -10 5z"/>
<path d="M518 493 c7 -3 16 -2 19 1 4 3 -2 6 -13 5 -11 0 -14 -3 -6 -6z"/>
</g>
</svg>
